<svg t="1740223426617" class="icon" viewBox="0 0 1024 1024" version="1.1" xmlns="http://www.w3.org/2000/svg" p-id="2380" width="128" height="128"><path d="M228.693333 85.333333c11.264 0 21.162667-9.898667 21.162667-21.162666V21.504C249.856 10.24 239.957333 0.341333 228.693333 0.341333c-11.264 0-21.162667 9.898667-21.162666 21.162667v42.666667c0 11.264 9.898667 21.162667 21.162666 21.162666z m130.730667 242.688c-8.533333-8.533333-21.162667-8.533333-29.696 0-8.533333 8.533333-8.533333 21.162667 0 29.696l29.696 29.696c8.533333 8.533333 21.162667 8.533333 29.696 0 8.533333-8.533333 8.533333-21.162667 0-29.696l-29.696-29.696z m0-201.386666l29.696-29.696c8.533333-8.533333 8.533333-21.162667 0-29.696-8.533333-8.533333-21.162667-8.533333-29.696 0l-29.696 29.696c-8.533333 8.533333-8.533333 21.162667 0 29.696 8.533333 8.533333 21.162667 8.533333 29.696 0z m11.264 100.693333c0 11.264 9.898667 21.162667 21.162667 21.162667h42.666666c11.264 0 21.162667-9.898667 21.162667-21.162667 0-11.264-9.898667-21.162667-21.162667-21.162667h-42.666666c-11.264 0-21.162667 9.898667-21.162667 21.162667zM235.861333 340.992c62.464 0 113.664-51.2 113.664-113.664 0-62.464-51.2-113.664-113.664-113.664s-113.664 51.2-113.664 113.664c0.341333 62.464 51.2 113.664 113.664 113.664z m0-184.661333c39.594667 0 70.997333 31.061333 70.997334 70.997333 0 39.594667-31.061333 70.997333-70.997334 70.997333-39.594667 0-70.997333-31.061333-70.997333-70.997333 0-39.594667 31.402667-70.997333 70.997333-70.997333z m772.096 564.906666c4.096-12.629333 7.168-26.965333 8.533334-39.594666h1.365333v-4.096c21.162667-146.090667-62.464-292.522667-207.189333-344.746667-159.061333-58.026667-333.482667 18.432-401.749334 170.325333-2.730667 7.168 36.864 21.162667 39.594667 15.701334 2.730667-5.802667 5.802667-11.264 8.533333-18.432 12.629333-9.898667 36.864-11.264 51.2-5.802667 18.432 7.168 28.330667 26.965333 21.162667 45.397333h1.365333c-1.365333 1.365333-1.365333 4.096-2.730666 5.802667-2.730667 7.168 36.864 21.162667 39.594666 15.701333 2.730667-7.168 7.168-14.336 9.898667-19.797333 9.898667-9.898667 24.234667-12.629333 36.864-8.533333 18.432 7.168 28.330667 26.965333 21.162667 45.397333l39.594666 14.336c4.096-11.264 12.629333-18.432 22.869334-21.162667l-124.928 342.016c-29.696 7.168-56.661333 21.162667-83.626667 36.864v-139.264c19.797333-22.869333 36.864-39.594667 42.666667-45.397333 11.264-11.264-14.336-42.666667-42.666667-14.336-22.869333 22.869333-113.664 127.658667-113.664 127.658667H191.829333c-31.061333 0-56.661333 25.6-56.661333 56.661333V972.8c-79.530667 15.701333-113.664 49.834667-113.664 49.834667h993.621333s-25.6-38.229333-184.661333-42.666667c-65.194667-1.365333-88.064-70.997333-198.656-70.997333h-9.898667l117.76-322.218667c5.802667 8.533333 7.168 19.797333 4.096 31.061333l39.594667 14.336c7.168-18.432 26.965333-28.330667 45.397333-21.162666 18.432 7.168 28.330667 26.965333 21.162667 45.397333v2.730667c-1.365333 7.168 36.864 19.797333 39.594667 14.336v-1.365334c7.168-18.432 26.965333-28.330667 45.397333-21.162666 14.336 4.096 31.061333 17.066667 36.864 31.061333-1.365333 8.533333-2.730667 17.066667-5.802667 25.6-0.341333 6.826667 39.253333 20.821333 41.984 13.653333z m-559.104 245.76c-42.666667 7.168-103.765333 2.730667-212.992-1.365333-21.162667-1.365333-39.594667 0-56.661333 1.365333v-29.696c0-8.533333 5.802667-14.336 14.336-14.336h197.290667s26.965333-29.696 58.026666-63.829333v107.861333z m113.664-479.914666c-8.533333-14.336-22.869333-26.965333-39.594666-32.768-9.898667-4.096-19.797333-5.802667-31.061334-5.802667 62.464-70.997333 157.696-105.130667 251.221334-89.429333 2.730667 1.365333 5.802667 2.730667 7.168 5.802666-73.045333 15.701333-140.970667 59.733333-187.733334 122.197334z m280.917334 83.968c-21.162667-7.168-42.666667-5.802667-62.464 4.096-8.533333-18.432-24.234667-35.498667-45.397334-42.666667-21.162667-7.168-42.666667-5.802667-62.464 4.096-8.533333-18.432-24.234667-35.498667-45.397333-42.666667-4.096-1.365333-9.898667-2.730667-14.336-4.096 45.397333-49.834667 109.226667-82.261333 176.128-89.429333 44.032 48.128 68.266667 111.957333 69.632 178.858667-3.072-2.730667-8.533333-5.461333-15.701333-8.192z m106.496 39.594666c-17.066667-5.802667-32.768-5.802667-48.128-1.365333 5.802667-75.093333-14.336-149.162667-56.661334-208.554667h8.533334c75.093333 49.834667 120.490667 133.461333 123.562666 221.525334-8.874667-4.437333-17.408-8.874667-27.306666-11.605334zM65.536 248.832c11.264 0 21.162667-9.898667 21.162667-21.162667 0-11.264-9.898667-21.162667-21.162667-21.162666H22.869333c-11.264 0-21.162667 9.898667-21.162666 21.162666 0 11.264 9.898667 21.162667 21.162666 21.162667h42.666667z m141.994667 141.653333v42.666667c0 11.264 9.898667 21.162667 21.162666 21.162667 11.264 0 21.162667-9.898667 21.162667-21.162667v-42.666667c0-11.264-9.898667-21.162667-21.162667-21.162666-11.264 0-21.162667 9.898667-21.162666 21.162666z m-109.226667-62.464l-29.696 29.696c-8.533333 8.533333-8.533333 21.162667 0 29.696 8.533333 8.533333 21.162667 8.533333 29.696 0l29.696-29.696c8.533333-8.533333 8.533333-21.162667 0-29.696-8.533333-8.192-21.162667-8.192-29.696 0z m0-201.386666c8.533333 8.533333 21.162667 8.533333 29.696 0 8.533333-8.533333 8.533333-21.162667 0-29.696l-29.696-29.696c-8.533333-8.533333-21.162667-8.533333-29.696 0-8.533333 8.533333-8.533333 21.162667 0 29.696l29.696 29.696z m0 0" p-id="2381" fill="#1296db"></path></svg>