<svg t="1740214679447" class="icon" viewBox="0 0 1024 1024" version="1.1" xmlns="http://www.w3.org/2000/svg" p-id="1088" width="128" height="128"><path d="M0 0m227.555556 0l568.888888 0q227.555556 0 227.555556 227.555556l0 568.888888q0 227.555556-227.555556 227.555556l-568.888888 0q-227.555556 0-227.555556-227.555556l0-568.888888q0-227.555556 227.555556-227.555556Z" fill="#E4E9F2" p-id="1089"></path><path d="M512 512m-455.111111 0a455.111111 455.111111 0 1 0 910.222222 0 455.111111 455.111111 0 1 0-910.222222 0Z" fill="#E4E9F2" p-id="1090"></path><path d="M172.088889 345.6h115.2v149.333333h-115.2z" fill="#00D82E" p-id="1091"></path><path d="M359.822222 153.6h115.2v341.333333h-115.2z" fill="#0090F4" p-id="1092"></path><path d="M736.711111 234.666667h115.2v258.844444h-115.2z" fill="#FF0C00" p-id="1093"></path><path d="M547.555556 291.555556h115.2v203.377777h-115.2z" fill="#FFB600" p-id="1094"></path><path d="M172.088889 529.066667h115.2v149.333333h-115.2z" fill="#00D82E" p-id="1095"></path><path d="M359.822222 529.066667h115.2v341.333333h-115.2z" fill="#0090F4" p-id="1096"></path><path d="M736.711111 529.066667h115.2v258.844444h-115.2z" fill="#FF0C00" p-id="1097"></path><path d="M547.555556 529.066667h115.2v203.377777h-115.2z" fill="#FFB600" p-id="1098"></path></svg>