<svg t="1740215641490" class="icon" viewBox="0 0 1024 1024" version="1.1" xmlns="http://www.w3.org/2000/svg" p-id="3382" width="48" height="48"><path d="M512 0C230.4 0 0 230.4 0 512s230.4 512 512 512 512-230.4 512-512S793.6 0 512 0z m12.8 153.6c195.197388 0 195.197388 147.205224 195.197388 230.4 0 83.205224-76.8 236.805224-195.197388 240.002612-115.2 0-195.197388-153.6-195.197388-240.002612 0-83.194776 0-230.4 195.197388-230.4zM512 995.202612c-147.194776 0-281.6-67.207837-371.2-172.805224 12.8-31.994776 28.797388-67.197388 51.2-86.392164 48.002612-38.410449 192-102.410449 192-102.410448l89.6 172.805224 15.997388-41.597388-25.6-51.2 51.2-51.2 51.2 51.2-22.402612 54.397388 12.810448 41.597388 92.797388-169.597388s143.997388 64 192 102.4c22.392163 15.997388 38.4 44.805224 47.992164 70.394776C803.202612 924.797388 665.6 995.202612 512 995.202612z" fill="#0071D3" p-id="3383"></path></svg>